<?xml version="1.0" encoding="UTF-8" standalone="no"?>
<!DOCTYPE svg PUBLIC "-//W3C//DTD SVG 1.1//EN" "http://www.w3.org/Graphics/SVG/1.1/DTD/svg11.dtd">
<svg viewBox="-10 -10 1020 1020" version="1.1" xmlns="http://www.w3.org/2000/svg" xmlns:xlink="http://www.w3.org/1999/xlink" xml:space="preserve" style="fill-rule:evenodd;clip-rule:evenodd;stroke-linejoin:round;stroke-miterlimit:1.41421;">
	<defs>
		<filter id="Trelif" color-interpolation-filters="sRGB" x="-0.25" y="-0.25" width="1.5" height="1.5">
			<feBlend mode="screen" in2="SourceGraphic" result="a666"/>
			<feGaussianBlur stdDeviation="2" result="a777"/>
			<feComposite operator="xor" in="a777" in2="a666" result="a888"/>
			<feComposite operator="xor" in="a888" in2="a888"/>
			<feGaussianBlur stdDeviation="3" result="a999"/>
			<feSpecularLighting surfaceScale="6" specularConstant="1.5" specularExponent="55" result="a000">
				<fePointLight x="-5000" y="-8000" z="20000"/>
			</feSpecularLighting>
			<feComposite operator="arithmetic" k2="1.5" k3="1" in="a999" in2="SourceGraphic" result="a111"/>
			<feComposite operator="atop" in="a000" in2="a111" result="a222"/>
			<feBlend mode="multiply" in2="a222"/>
		</filter>
	</defs>

	<g id="Buckle-Face-1">
		<title>Buckle Face, by Adam Stanislav</title>

		<path id="Background" d="M1000 137.031c0-75.63-61.401-137.031-137.031-137.031 0 0-108.01 25-162.969 25-60.495 0-200-25-200-25 0 0-139.505 25-200 25-54.959 0-162.969-25-162.969-25-75.63 0-137.031 61.401-137.031 137.031 0 0 50 106.147 50 162.969 0 60.011-50 197.098-50 197.098 0 0 50 141.924 50 202.902 0 56.822-50 162.969-50 162.969 0 75.63 61.401 137.031 137.031 137.031 0 0 108.01-25 162.969-25 60.817 0 201.936 25 201.936 25 0 0 137.892-25 198.064-25 54.959 0 162.969 25 162.969 25 75.63 0 137.031-61.401 137.031-137.031 0 0-50-106.147-50-162.969 0-60.656 50-200.968 50-200.968 0 0-50-138.698-50-199.032 0-56.822 50-162.969 50-162.969z" fill="#B3704D"/>

		<g id="Face" filter="url(#Trelif)">
			<path id="Frame" d="M1000 137.031c0-75.63-61.401-137.031-137.031-137.031 0 0-108.01 25-162.969 25-60.495 0-200-25-200-25 0 0-139.505 25-200 25-54.959 0-162.969-25-162.969-25-75.63 0-137.031 61.401-137.031 137.031 0 0 50 106.147 50 162.969 0 60.011-50 197.098-50 197.098 0 0 50 141.924 50 202.902 0 56.822-50 162.969-50 162.969 0 75.63 61.401 137.031 137.031 137.031 0 0 108.01-25 162.969-25 60.817 0 201.936 25 201.936 25 0 0 137.892-25 198.064-25 54.959 0 162.969 25 162.969 25 75.63 0 137.031-61.401 137.031-137.031 0 0-50-106.147-50-162.969 0-60.656 50-200.968 50-200.968 0 0-50-138.698-50-199.032 0-56.822 50-162.969 50-162.969zm-50 36.297c0-68.067-55.261-123.328-123.328-123.328 0 0-97.209 22.5-146.672 22.5-54.445 0-180-22.5-180-22.5 0 0-125.555 22.5-180 22.5-49.463 0-146.672-22.5-146.672-22.5-68.067 0-123.328 55.261-123.328 123.328 0 0 45 95.532 45 146.672 0 54.01-45 177.388-45 177.388 0 0 45 127.731 45 182.612 0 51.14-45 146.672-45 146.672 0 68.067 55.261 123.328 123.328 123.328 0 0 97.209-22.5 146.672-22.5 54.736 0 181.742 22.5 181.742 22.5 0 0 124.103-22.5 178.258-22.5 49.463 0 146.672 22.5 146.672 22.5 68.067 0 123.328-55.261 123.328-123.328 0 0-45-95.532-45-146.672 0-54.591 45-180.871 45-180.871 0 0-45-124.829-45-179.129 0-51.14 45-146.672 45-146.672zm-15 10.889c0-65.798-53.419-119.217-119.217-119.217 0 0-93.969 21.75-141.783 21.75-52.631 0-174-21.75-174-21.75 0 0-121.369 21.75-174 21.75-47.814 0-141.783-21.75-141.783-21.75-65.798 0-119.217 53.419-119.217 119.217 0 0 43.5 92.348 43.5 141.783 0 52.21-43.5 171.476-43.5 171.476 0 0 43.5 123.473 43.5 176.524 0 49.435-43.5 141.783-43.5 141.783 0 65.798 53.419 119.217 119.217 119.217 0 0 93.969-21.75 141.783-21.75 52.911 0 175.684 21.75 175.684 21.75 0 0 119.966-21.75 172.316-21.75 47.814 0 141.783 21.75 141.783 21.75 65.798 0 119.217-53.419 119.217-119.217 0 0-43.5-92.348-43.5-141.783 0-52.771 43.5-174.842 43.5-174.842 0 0-43.5-120.668-43.5-173.158 0-49.435 43.5-141.783 43.5-141.783zm-60 43.556c0-56.722-46.051-102.773-102.773-102.773 0 0-81.008 18.75-122.227 18.75-45.371 0-150-18.75-150-18.75 0 0-104.629 18.75-150 18.75-41.219 0-122.227-18.75-122.227-18.75-56.722 0-102.773 46.051-102.773 102.773 0 0 37.5 79.61 37.5 122.227 0 45.008-37.5 147.824-37.5 147.824 0 0 37.5 106.442 37.5 152.176 0 42.617-37.5 122.227-37.5 122.227 0 56.722 46.051 102.773 102.773 102.773 0 0 81.008-18.75 122.227-18.75 45.613 0 151.452 18.75 151.452 18.75 0 0 103.419-18.75 148.548-18.75 41.219 0 122.227 18.75 122.227 18.75 56.722 0 102.773-46.051 102.773-102.773 0 0-37.5-79.61-37.5-122.227 0-45.492 37.5-150.726 37.5-150.726 0 0-37.5-104.024-37.5-149.274 0-42.617 37.5-122.227 37.5-122.227z"/>
			<path id="Moon" d="M200 600c0 110.383 134.425 200 300 200 165.575 0 300-89.617 300-200-70 33.115-180.328 60-300 60-119.672 0-230-26.885-300-60z"/>
			<path id="Star" d="M325 200l20.307 62.5l39.134-19.314-6.275 43.187 65.716 0-53.166 38.627 30.462 31.25-43.012 7.377 20.307 62.5-53.166-38.627-20.307 38.627-20.307-38.627-53.166 38.627 20.307-62.5-43.012-7.377 30.462-31.25-53.166-38.627 65.716 0-6.275-43.187 39.134 19.314 20.307-62.5z"/>
			<use xlink:href="#Star" transform="translate(350)"/>
			<path id="Drop" d="M500 187.5c0 0-56.25 249.375-56.25 356.25 0 31.045 25.205 56.25 56.25 56.25 31.045 0 56.25-25.205 56.25-56.25 0-106.875-56.25-356.25-56.25-356.25z"/>
		</g>
	</g>
</svg>
